<?xml version="1.0" standalone="no"?><!DOCTYPE svg PUBLIC "-//W3C//DTD SVG 1.1//EN" "http://www.w3.org/Graphics/SVG/1.1/DTD/svg11.dtd"><svg t="1523709721796" class="icon" style="" viewBox="0 0 1024 1024" version="1.1" xmlns="http://www.w3.org/2000/svg" p-id="1323" xmlns:xlink="http://www.w3.org/1999/xlink" width="32" height="32"><defs><style type="text/css"></style></defs><path d="M1023.908229 511.871666q0 99.376228-68.517679 183.688804t-186.248162 133.086633-257.105826 48.847182q-39.999115 0-82.850085-4.53372-113.123638 99.961224-262.809538 138.278474-28.006693 7.970573-65.153951 12.577418-9.725562 1.169992-17.403637-5.118717t-10.01806-16.599267l0-0.584996q-1.681864-2.26686-0.292498-6.873705t1.169992-5.703713 2.559358-5.411215l3.436853-5.118717t4.021849-4.826219 4.53372-5.118717q4.021849-4.53372 17.696135-19.743621t19.743621-21.717984 17.696135-22.595478 18.573629-29.10356 15.429275-33.710405 14.844278-43.435967q-89.723791-50.821544-141.422829-125.701056t-51.699038-160.50833q0-74.294516 40.584111-141.934701t109.101789-116.852989 163.360186-77.950742 198.82558-28.884187q139.375342 0 257.105826 48.847182t186.248162 133.086633 68.517679 183.688804z" p-id="1324" fill="#b02101"></path></svg>