<?xml version="1.0" standalone="no"?><!DOCTYPE svg PUBLIC "-//W3C//DTD SVG 1.1//EN" "http://www.w3.org/Graphics/SVG/1.1/DTD/svg11.dtd"><svg t="1523196582946" class="icon" style="" viewBox="0 0 1024 1024" version="1.1" xmlns="http://www.w3.org/2000/svg" p-id="1402" xmlns:xlink="http://www.w3.org/1999/xlink" width="32" height="32"><defs><style type="text/css"></style></defs><path d="M960.293049 357.426529C941.745624 224.086661 824.989457 133.217071 701.258435 133.217071c-37.930891 0-76.521814 8.54563-113.134687 27.02347-25.701358 12.967336-48.742121 31.322379-74.404594 48.094368-0.014326-0.008186-1.670036-1.305739-3.194762-2.744507-50.544163-47.667649-114.672716-72.257697-179.531909-72.257697-44.673455 0-89.700975 11.664667-130.871653 35.489282-94.600565 54.781674-144.951323 162.717965-126.373199 270.434246 10.683317 61.901839 40.784892 113.068172 84.307128 156.968008 82.211397 82.912361 224.358861 226.00229 302.669414 304.705793 15.44783 15.524578 35.662221 23.280216 55.875588 23.280216 20.185738 0 40.368406-7.724938 55.809073-23.200398 80.390935-80.557734 228.275054-229.353618 313.600371-317.471538C946.197006 521.379625 972.418204 444.608124 960.293049 357.426529z" p-id="1403" fill="#b02101"></path></svg>