<?xml version="1.0" standalone="no"?><!DOCTYPE svg PUBLIC "-//W3C//DTD SVG 1.1//EN" "http://www.w3.org/Graphics/SVG/1.1/DTD/svg11.dtd"><svg t="1523196573912" class="icon" style="" viewBox="0 0 1024 1024" version="1.1" xmlns="http://www.w3.org/2000/svg" p-id="1177" xmlns:xlink="http://www.w3.org/1999/xlink" width="32" height="32"><defs><style type="text/css"></style></defs><path d="M958.90033 339.507414C940.218852 205.230198 822.629713 113.721041 698.015577 113.721041c-38.201044 0-77.064166 8.604982-113.939005 27.213805-25.886577 13.05841-49.089022 31.543414-74.939783 48.433082-0.014326-0.008186-1.681292-1.314948-3.217275-2.76395C455.017194 138.599661 390.43327 113.837698 325.109496 113.837698c-44.995797 0-90.340541 11.746532-131.803885 35.738969C98.027617 204.744127 47.318702 313.439712 66.030879 421.913239c10.758018 62.336744 41.072441 113.863281 84.903715 158.072155 82.797751 83.495646 225.965451 227.591485 304.830637 306.84962 15.560394 15.633049 35.917024 23.443945 56.276724 23.443945 20.327978 0 40.655955-7.780197 56.205093-23.364127 80.963986-81.124645 229.90518-230.967372 315.838342-319.705416C944.700933 504.614799 971.115536 427.302993 958.90033 339.507414zM837.672314 521.492188c-100.258425 103.534028-280.111652 283.897885-315.148633 319.008544-3.591805 3.603061-7.68503 4.355191-10.480702 4.355191-2.799766 0-6.885827-0.757247-10.480702-4.367471-78.845743-79.245855-221.977627-223.298715-304.755935-306.775942-37.179784-37.488823-59.043744-77.724199-66.855664-123.010615-13.985526-81.025385 24.458041-163.166173 95.649454-204.369597 30.594809-17.715477 64.999386-27.072589 99.510388-27.072589 50.321082 0 98.797144 19.581987 136.495744 55.123458 16.625656 15.689331 33.148981 20.456914 47.086411 20.456914 17.936511 0 31.608905-7.890714 35.730783-10.56359 8.80248-5.753027 17.319457-11.678994 25.733081-17.530258 15.129582-10.526751 29.414937-20.475334 42.949184-27.299763 26.686802-13.465686 55.251372-20.290115 84.911902-20.290115 98.66309 0 183.202509 72.845075 196.640566 169.449273C903.989719 415.709957 885.34815 472.262974 837.672314 521.492188z" p-id="1178" fill="#b02101"></path></svg>